RBDS002runT25_grf
version=1
nRows=15
nColumns=19
inDegrees=no
endheader
time	ground_force_r_vx	ground_force_r_vy	ground_force_r_vz	ground_force_r_px	ground_force_r_py	ground_force_r_pz	ground_force_r_mx	ground_force_r_my	ground_force_r_mz	ground_force_l_vx	ground_force_l_vy	ground_force_l_vz	ground_force_l_px	ground_force_l_py	ground_force_l_pz	ground_force_l_mx	ground_force_l_my	ground_force_l_mz
      7.49900000	   -148.19006664	   1111.52889523	     -0.88300936	      2.39111616	      0.00000000	      1.04367672	     -0.00000000	     -2.75585830	      0.00000000	      0.00000000	      0.00000000	      0.00000000	      0.00000000	      0.00000000	      0.00000000	      0.00000000	      0.00000000	      0.00000000
      7.50000000	   -151.34337902	   1121.74227199	      0.16533619	      2.39028076	      0.00000000	      1.04337468	     -0.00000000	     -2.67974982	      0.00000000	      0.00000000	      0.00000000	      0.00000000	      0.00000000	      0.00000000	      0.00000000	      0.00000000	      0.00000000	      0.00000000
      7.50100000	   -154.27672598	   1130.87418474	      1.09102754	      2.38943212	      0.00000000	      1.04311489	     -0.00000000	     -2.58213720	      0.00000000	      0.00000000	      0.00000000	      0.00000000	      0.00000000	      0.00000000	      0.00000000	      0.00000000	      0.00000000	      0.00000000
      7.50200000	   -157.21007295	   1140.00609749	      2.01671889	      2.38858348	      0.00000000	      1.04285510	     -0.00000000	     -2.48452458	      0.00000000	      0.00000000	      0.00000000	      0.00000000	      0.00000000	      0.00000000	      0.00000000	      0.00000000	      0.00000000	      0.00000000
      7.50300000	   -160.14341991	   1149.13801023	      2.94241024	      2.38773483	      0.00000000	      1.04259530	     -0.00000000	     -2.38691195	      0.00000000	      0.00000000	      0.00000000	      0.00000000	      0.00000000	      0.00000000	      0.00000000	      0.00000000	      0.00000000	      0.00000000
      7.50400000	   -162.90715871	   1157.68445326	      3.76438558	      2.38686842	      0.00000000	      1.04236366	     -0.00000000	     -2.27916957	      0.00000000	      0.00000000	      0.00000000	      0.00000000	      0.00000000	      0.00000000	      0.00000000	      0.00000000	      0.00000000	      0.00000000
      7.50500000	   -165.58609342	   1165.93816142	      4.53450290	      2.38599313	      0.00000000	      1.04214608	     -0.00000000	     -2.16636230	      0.00000000	      0.00000000	      0.00000000	      0.00000000	      0.00000000	      0.00000000	      0.00000000	      0.00000000	      0.00000000	      0.00000000
      7.50600000	   -168.26502813	   1174.19186958	      5.30462022	      2.38511783	      0.00000000	      1.04192851	     -0.00000000	     -2.05355504	      0.00000000	      0.00000000	      0.00000000	      0.00000000	      0.00000000	      0.00000000	      0.00000000	      0.00000000	      0.00000000	      0.00000000
      7.50700000	   -170.84764953	   1182.22009246	      6.01519459	      2.38422910	      0.00000000	      1.04172468	     -0.00000000	     -1.93759565	      0.00000000	      0.00000000	      0.00000000	      0.00000000	      0.00000000	      0.00000000	      0.00000000	      0.00000000	      0.00000000	      0.00000000
      7.50800000	   -173.23764433	   1189.79734477	      6.60668306	      2.38331349	      0.00000000	      1.04154833	     -0.00000000	     -1.81533202	      0.00000000	      0.00000000	      0.00000000	      0.00000000	      0.00000000	      0.00000000	      0.00000000	      0.00000000	      0.00000000	      0.00000000
      7.50900000	   -175.62763912	   1197.37459707	      7.19817153	      2.38239787	      0.00000000	      1.04137199	     -0.00000000	     -1.69306839	      0.00000000	      0.00000000	      0.00000000	      0.00000000	      0.00000000	      0.00000000	      0.00000000	      0.00000000	      0.00000000	      0.00000000
      7.51000000	   -178.01763391	   1204.95184938	      7.78965999	      2.38148226	      0.00000000	      1.04119564	     -0.00000000	     -1.57080476	      0.00000000	      0.00000000	      0.00000000	      0.00000000	      0.00000000	      0.00000000	      0.00000000	      0.00000000	      0.00000000	      0.00000000
      7.51100000	   -180.08534185	   1212.04435162	      8.18983424	      2.38051287	      0.00000000	      1.04105862	     -0.00000000	     -1.44406328	      0.00000000	      0.00000000	      0.00000000	      0.00000000	      0.00000000	      0.00000000	      0.00000000	      0.00000000	      0.00000000	      0.00000000
      7.51200000	   -182.15304979	   1219.13685385	      8.59000848	      2.37954347	      0.00000000	      1.04092160	     -0.00000000	     -1.31732180	      0.00000000	      0.00000000	      0.00000000	      0.00000000	      0.00000000	      0.00000000	      0.00000000	      0.00000000	      0.00000000	      0.00000000
      7.51300000	   -184.22075773	   1226.22935608	      8.99018273	      2.37857408	      0.00000000	      1.04078458	     -0.00000000	     -1.19058032	      0.00000000	      0.00000000	      0.00000000	      0.00000000	      0.00000000	      0.00000000	      0.00000000	      0.00000000	      0.00000000	      0.00000000
